<mxfile host="app.diagrams.net" modified="2024-04-22T16:33:24.764Z" agent="Mozilla/5.0 (X11; Linux x86_64) AppleWebKit/537.36 (KHTML, like Gecko) Chrome/124.0.0.0 Safari/537.36" version="24.2.7" etag="FNbYmpiU7CfyETw0QBh3" type="github">
  <diagram name="Page-1" id="1cMu8gAphTZMLcmRkBo4">
    <mxGraphModel>
      <root>
        <mxCell id="0" />
        <mxCell id="1" parent="0" />
      </root>
    </mxGraphModel>
  </diagram>
</mxfile>
